PathFileType	4	(X/Y/Z)	C:/Users/beibeiliu/ov580/test_trc/User1\sequence.6_training_dense_left.trc
DataRate	CameraRate	NumFrames	NumMarkers	Units	OrigDataRate	OrigDataStartFrame	OrigNumFrames
120	120	20	19	mm	120	139	277
Frame#	Time	ThumbCMC			ThumbMCP			ThumbIP			ThumbTip			IndexMCP			IndexPIP			IndexTip			MiddleMCP			MiddlePIP			MiddleTip			RingMCP			RingPIP			RingTip			PinkyMCP			PinkyPIP			PinkyTip			BackHand1			BackHand2			BackHand3	
		X0	Y0	Z0	X1	Y1	Z1	X2	Y2	Z2	X3	Y3	Z3	X4	Y4	Z4	X5	Y5	Z5	X6	Y6	Z6	X7	Y7	Z7	X8	Y8	Z8	X9	Y9	Z9	X10	Y10	Z10	X11	Y11	Z11	X12	Y12	Z12	X13	Y13	Z13	X14	Y14	Z14	X15	Y15	Z15	X16	Y16	Z16	X17	Y17	Z17	X18	Y18	Z18	
138	1.15	-162.748	60.5233	16.4804	-180.036	40.4908	-11.8327	-189.71	34.2321	-43.7938	-204.735	32.5875	-63.0933	-151.617	73.7085	-67.9875	-165.13	64.8887	-93.903	-182.543	51.4312	-113.044	-178.242	88.4817	-73.6058	-202.236	61.8363	-74.5844	-210.44	53.8443	-38.1394	-200.289	98.6661	-60.4348	-221.588	70.1872	-55.3841	-223.587	63.4097	-22.9803	-214.708	106.486	-48.1654	-228.929	82.0164	-39.6245	-215.615	70.6566	-15.3687	-173.427	126.535	-13.1361	-173.75	125.5	27.4917	-147.474	99.1726	5.3599	
139	1.15833	-159.75	59.0701	12.2918	-176.902	40.289	-16.9821	-187.309	38.4862	-44.4417	-200.591	37.3539	-62.6751	-147.226	80.2001	-68.9091	-156.243	75.5926	-96.7602	-170.784	72.3534	-116.817	-180.349	91.7807	-75.4828	-200.362	66.6294	-78.4755	-207.514	53.1587	-41.4226	-203.068	97.7321	-61.2887	-223.082	69.4996	-53.7585	-218.249	60.0098	-22.635	-215.299	111.702	-45.7292	-228.83	83.6792	-42.1077	-214.648	72.8605	-12.682	-174.979	125.086	-8.2554	-174.823	127.906	22.4491	-150.923	102.836	8.11592	
140	1.16667	-158.176	64.5234	10.5099	-172.874	41.927	-16.765	-182.64	38.4157	-45.6844	-197.771	37.0991	-69.1414	-149.072	91.769	-69.088	-153.634	91.6559	-97.6406	-163.044	91.5793	-120.229	-178.005	94.3634	-73.136	-200.946	67.8423	-79.1139	-203.689	53.9333	-40.3636	-202.537	98.2351	-63.2228	-219.925	66.1069	-55.9533	-215.319	57.6919	-25.293	-219.469	108.386	-47.481	-228.037	80.6567	-42.4806	-211.406	70.3712	-18.8483	-179.114	126.906	-10.5753	-179.042	127.09	26.7718	-148.468	105.828	4.29398	
141	1.175	-154.972	67.5385	10.2334	-168.035	47.371	-18.997	-173.73	37.9037	-46.5636	-188.563	36.7843	-66.3104	-147.686	97.3779	-67.4336	-151.93	99.7889	-92.9308	-156.947	102.109	-122.269	-181.327	97.9875	-74.9964	-196.414	62.1033	-79.6234	-199.069	51.1024	-44.0159	-209.097	95.5488	-65.3172	-220.039	65.6498	-58.4625	-216.818	55.8019	-28.8461	-225.727	101.849	-50.6717	-228.406	75.0545	-44.8321	-208.056	66.1624	-14.8333	-185.953	128.01	-15.8409	-185.776	130.527	20.7328	-156.75	111.223	3.89534	
142	1.18333	-151.635	74.7518	11.3186	-160.293	52.7355	-19.7723	-166.641	43.8493	-47.7932	-180.972	39.5504	-68.5893	-151.941	107.656	-68.3853	-158.368	109.838	-95.1097	-163.914	111.352	-119.083	-182.691	96.423	-78.0415	-195.442	64.5453	-81.927	-194.631	54.0066	-41.9375	-207.138	93.513	-65.8875	-216.266	60.4801	-60.0126	-204.895	51.139	-26.8699	-229.409	94.954	-51.7974	-223.304	67.9663	-45.7775	-208.692	61.9064	-15.9789	-193.906	128.727	-15.5241	-196.68	132.668	18.7542	-163.477	119.661	3.2827	
143	1.19167	-150.718	86.3593	8.31424	-155.652	61.5358	-20.5847	-159.215	50.1828	-46.9819	-172.166	41.7296	-68.4237	-159.218	113.873	-70.7012	-164.656	115.161	-95.5755	-170.889	114.772	-121.467	-190.083	96.8693	-80.4805	-192.039	61.8313	-81.0146	-184.111	52.6344	-43.4671	-210.699	89.6503	-66.7247	-210.35	52.8327	-58.8521	-201.967	47.958	-31.0033	-230.965	90.0368	-50.251	-219.6	60.819	-46.4289	-203.743	61.8388	-14.5044	-202.097	128.523	-18.7645	-207.321	130.32	18.1154	-172.621	124.221	0.865716	
144	1.2	-152.69	94.988	7.88092	-148.01	68.6548	-22.6576	-152.937	56.4146	-48.4875	-161.984	42.377	-70.9561	-167.784	118.722	-71.917	-171.012	116.395	-99.1272	-178.939	114.698	-126.111	-192.434	96.9824	-79.8184	-187.2	62.8405	-84.1001	-175.715	53.7262	-44.8243	-209.461	80.2203	-69.5512	-203.221	51.4539	-63.3499	-194.257	47.5041	-27.1758	-227.589	81.307	-51.1878	-214.896	53.5097	-45.4143	-199.642	56.5016	-19.9286	-211.274	123.896	-19.0377	-215.05	127.354	17.233	-178.756	128.236	-3.72603	
145	1.20833	-153.796	105.158	2.00656	-146.486	78.4727	-23.1715	-148.409	64.0697	-50.4025	-154.66	48.1489	-69.4196	-178.021	119.771	-78.0424	-182.746	116.537	-99.8433	-189.045	111.058	-123.777	-196.339	93.659	-79.9675	-184.274	61.4346	-84.4607	-169.094	53.8704	-45.0619	-209.751	79.1146	-68.0948	-196.356	46.6407	-62.1827	-185.018	47.911	-29.1659	-229.216	67.1762	-54.607	-210.506	46.45	-47.7471	-193.998	53.7363	-19.9355	-222.102	115.785	-19.405	-224.957	122.221	15.4142	-188.147	130.526	-3.64797	
146	1.21667	-163.138	111.072	1.61498	-148.955	86.7193	-24.1167	-140.594	72.3674	-47.8197	-149.412	55.1657	-67.2215	-188.624	117.906	-78.5604	-189.507	114.291	-101.132	-199.243	105.326	-130.263	-197.558	91.8048	-82.3222	-180.831	60.1542	-86.0607	-165.017	53.4555	-50.9537	-209.307	70.2538	-71.2367	-187.823	42.7181	-62.4601	-179.125	44.0006	-34.4612	-226.453	59.8815	-52.6379	-202.868	43.8113	-51.1327	-184.714	53.8689	-23.597	-227.078	108.571	-20.0654	-230.652	115.465	12.5452	-201.133	131.042	-6.42007	
147	1.225	-166.339	115.683	-1.5712	-146.19	93.4862	-24.8103	-145.71	78.9023	-49.3572	-142.608	59.6494	-70.0984	-192.95	118.639	-79.0644	-197.886	110.469	-102.953	-204.181	100.347	-126.564	-201.826	85.0443	-82.7477	-179.4	60.8019	-88.4855	-160.978	53.6017	-55.0936	-211.564	65.7866	-68.9874	-183.606	44.0927	-64.9971	-172.996	44.6934	-32.2188	-225.542	53.118	-53.0695	-196.499	41.1185	-50.1751	-180.397	51.5997	-23.809	-232.973	100.976	-23.1045	-232.407	110.688	15.8033	-203.497	129.55	-7.43086	
148	1.23333	-168.219	119.907	-0.0452159	-149.317	97.2798	-27.1441	-144.158	83.2918	-49.5774	-138.587	63.2793	-69.5649	-198.751	115.18	-77.5932	-204.256	105.886	-102.078	-210.946	93.8872	-127.418	-201.317	86.3734	-83.2599	-176.523	60.9082	-88.8209	-159.674	53.8346	-53.4311	-209.759	60.982	-69.1771	-181.315	43.3203	-65.6196	-166.098	48.6838	-34.5796	-221.508	51.4313	-52.515	-192.783	40.157	-51.4322	-176.528	50.4162	-24.4207	-233.892	96.9841	-23.5578	-234.319	108.965	15.619	-210.28	127.373	-9.73162	
149	1.24167	-173.004	120.967	-1.20663	-147.014	101.937	-24.3396	-141.08	86.4953	-52.5267	-139.075	66.9143	-71.3369	-201.689	112.354	-82.5155	-206.528	102.943	-101.461	-209.525	91.6534	-130.228	-201.094	85.5899	-82.1049	-176.093	60.0689	-89.2462	-153.558	59.58	-51.5315	-204.916	62.8396	-70.0265	-176.483	43.2214	-63.6997	-164.862	46.2483	-35.19	-218.326	50.4462	-50.7025	-191.822	36.8119	-51.5219	-173.89	49.8317	-24.7737	-235.907	93.4615	-23.2189	-237.915	101.522	13.6715	-212.417	128.213	-10.3174	
150	1.25	-176.314	122.706	-4.83691	-150.22	103.435	-28.2482	-140.06	91.5517	-48.2488	-132.675	72.7881	-67.86	-202.98	111.212	-79.591	-205.641	103.645	-106.531	-211.551	87.5738	-127.02	-200.086	79.0521	-83.2991	-170.249	58.869	-83.8789	-152.748	61.2419	-53.4307	-199.445	61.1976	-70.9532	-171.235	45.2139	-61.3426	-160.871	52.9132	-31.9844	-214.199	44.6723	-51.3305	-184.27	39.0147	-47.8516	-167.821	53.9909	-22.1849	-234.148	92.585	-20.5944	-236.905	99.8462	11.9457	-216.639	126.8	-11.3662	
151	1.25833	-175.114	127.313	-6.75889	-154.15	106.196	-27.575	-139.651	94.619	-52.6639	-134.942	75.8697	-67.9656	-204.622	110.343	-79.2335	-207.374	100.167	-104.018	-211.723	84.7644	-127.548	-199.559	78.6004	-80.6653	-167.175	60.4956	-84.5772	-149.689	66.8327	-48.6969	-196.358	56.7857	-69.1069	-166.077	47.7923	-59.1377	-156.787	55.4355	-31.6447	-206.509	45.1053	-51.1871	-178.616	38.9952	-45.9808	-165.134	55.4192	-23.2243	-236.239	86.7106	-24.1902	-238.736	95.5955	11.363	-220.114	120.436	-15.1134	
152	1.26667	-178.412	128.741	-6.93504	-152.382	112.005	-24.3606	-139.255	100.611	-48.9817	-130.561	83.2575	-66.539	-205.431	110.037	-82.678	-207.619	100.386	-106.723	-211.69	85.4111	-125.863	-196.783	77.8319	-82.359	-163.297	65.403	-84.9069	-148.266	70.2735	-49.0129	-195.332	59.4219	-67.3913	-163.664	49.808	-59.8425	-154.332	61.9276	-27.089	-203.082	41.0696	-48.0967	-173.475	44.7964	-45.1213	-164.08	63.3167	-22.2853	-233.303	85.2078	-20.8929	-237.619	97.3841	11.2685	-221.655	120.481	-12.4719	
153	1.275	-181.872	129.744	-6.5537	-151.416	117.97	-27.3158	-142.317	103.038	-50.0203	-129.583	88.3319	-64.89	-207.053	106.885	-78.8987	-208.92	97.5994	-108.667	-210.495	79.9967	-128.598	-192.648	79.7614	-85.5424	-161.079	66.8492	-84.0591	-145.081	77.9564	-49.8101	-193.635	56.5925	-65.241	-156.915	53.082	-58.0309	-149.104	66.2524	-31.8519	-197.089	45.2547	-48.0314	-166.91	46.2138	-41.5528	-159.974	67.1441	-21.5064	-231.773	80.4053	-24.2635	-237.487	92.6939	13.4718	-223.871	119.878	-11.7313	
154	1.28333	-184.438	132.114	-7.65268	-151.993	122.583	-30.291	-139.043	109.134	-54.4825	-131.847	91.4851	-67.1977	-206.813	107.834	-86.136	-205.709	93.4015	-107.202	-202.446	79.4467	-127.416	-192.922	78.2111	-83.0716	-157.902	72.6622	-85.5293	-143.007	83.5062	-48.4563	-189.376	62.596	-66.5221	-153.011	56.851	-57.0333	-145.172	70.429	-30.2846	-193.152	43.7511	-45.8773	-162.721	52.5592	-44.2226	-156.414	70.9055	-23.4335	-229.492	82.1365	-22.6878	-235.24	90.7314	13.9939	-222.674	119.363	-15.5316	
155	1.29167	-186.786	136.096	-5.22039	-157.551	123.34	-29.9692	-140.761	115.842	-51.7781	-127.288	100.266	-70.9857	-201.765	111.363	-85.0216	-195.297	98.5129	-111.356	-184.797	82.5047	-130.832	-190.164	82.8676	-84.2634	-151.901	79.6952	-83.4213	-140.226	86.1088	-49.7329	-184.175	64.878	-68.1308	-150.182	60.4562	-61.2847	-139.487	76.1574	-32.9103	-184.516	47.5616	-48.9462	-157.819	54.0439	-43.1718	-151.006	77.4113	-24.1336	-228.169	81.9141	-23.9779	-236.033	91.4769	12.5626	-227.014	116.832	-12.8656	
156	1.3	-188.106	137.249	-8.63465	-159.401	127.938	-28.9531	-141.261	120.968	-53.2763	-124.583	109.089	-68.2473	-196.644	106.076	-87.2911	-184.394	96.7497	-108.945	-165.33	85.2415	-125.733	-185.005	81.2322	-85.2507	-150.327	79.8167	-84.0359	-136.106	88.1336	-47.416	-178.44	61.1863	-67.9416	-145.315	68.2933	-62.1306	-135.442	79.7	-32.5989	-184.364	50.4028	-47.2399	-156.03	57.138	-45.9607	-145.892	79.5567	-23.7867	-224.572	78.7429	-25.0307	-232.939	89.6596	9.15934	-225.569	114.207	-17.5099	
157	1.30833	-189.071	140.384	-5.19048	-158.897	130.836	-24.7249	-141.638	123.226	-51.4253	-128.49	109.325	-67.568	-192.479	112.524	-86.7946	-174.618	101.793	-105.827	-147.641	92.2514	-119.191	-185.939	82.4308	-81.8305	-147.616	83.5614	-84.2015	-132.25	90.6704	-46.4028	-177.362	61.6798	-65.8655	-144.469	68.6181	-61.8797	-133.521	81.0252	-31.9112	-179.302	47.8743	-47.3289	-152.878	57.9609	-46.0928	-148.315	83.7554	-27.5285	-223.549	74.9384	-25.0208	-232.762	85.0656	9.92795	-225.404	118.098	-15.0391	
